<?xml version="1.0" encoding="UTF-8" standalone="no"?>
<!DOCTYPE svg PUBLIC "-//W3C//DTD SVG 1.1//EN" "http://www.w3.org/Graphics/SVG/1.1/DTD/svg11.dtd">
<svg width="100%" height="100%" viewBox="0 0 2481 3508" version="1.1" xmlns="http://www.w3.org/2000/svg" xmlns:xlink="http://www.w3.org/1999/xlink" xml:space="preserve" xmlns:serif="http://www.serif.com/" style="fill-rule:evenodd;clip-rule:evenodd;stroke-linecap:round;stroke-linejoin:round;stroke-miterlimit:1.5;">
    <g transform="matrix(1.13777,0,0,1.04974,-304.297,-303.836)">
        <g transform="matrix(357.221,0,0,357.221,1377.72,563.917)">
        </g>
        <text x="246.399px" y="563.917px" style="font-family:'Helvetica-Bold', 'Helvetica';font-weight:700;font-size:357.221px;">KIOSK</text>
    </g>
    <g transform="matrix(1.40407,0,0,1.28003,-377.391,-510.418)">
        <g transform="matrix(1,0,0,1,-2.27374e-13,3.38249)">
            <rect x="274.482" y="706.224" width="295.006" height="295.006" style="fill:white;stroke:black;stroke-width:6.2px;"/>
        </g>
        <g transform="matrix(1,0,0,1,355.07,3.38249)">
            <rect x="274.482" y="706.224" width="295.006" height="295.006" style="fill:white;stroke:black;stroke-width:6.2px;"/>
        </g>
        <g transform="matrix(1,0,0,1,710.14,3.38249)">
            <rect x="274.482" y="706.224" width="295.006" height="295.006" style="fill:white;stroke:black;stroke-width:6.2px;"/>
        </g>
        <g transform="matrix(1,0,0,1,1065.21,3.38249)">
            <rect x="274.482" y="706.224" width="295.006" height="295.006" style="fill:white;stroke:black;stroke-width:6.2px;"/>
        </g>
        <g transform="matrix(1,0,0,1,1420.28,3.38249)">
            <rect x="274.482" y="706.224" width="295.006" height="295.006" style="fill:white;stroke:black;stroke-width:6.2px;"/>
        </g>
        <g transform="matrix(1,0,0,1,-2.27374e-13,378.28)">
            <rect x="274.482" y="706.224" width="295.006" height="295.006" style="fill:white;stroke:black;stroke-width:6.2px;"/>
        </g>
        <g transform="matrix(1,0,0,1,355.07,378.28)">
            <rect x="274.482" y="706.224" width="295.006" height="295.006" style="fill:white;stroke:black;stroke-width:6.2px;"/>
        </g>
        <g transform="matrix(1,0,0,1,710.14,378.28)">
            <rect x="274.482" y="706.224" width="295.006" height="295.006" style="fill:white;stroke:black;stroke-width:6.2px;"/>
        </g>
        <g transform="matrix(1,0,0,1,1065.21,378.28)">
            <rect x="274.482" y="706.224" width="295.006" height="295.006" style="fill:white;stroke:rgb(255,0,0);stroke-width:6.2px;"/>
        </g>
        <g transform="matrix(1,0,0,1,1420.28,378.28)">
            <rect x="274.482" y="706.224" width="295.006" height="295.006" style="fill:white;stroke:black;stroke-width:6.2px;"/>
        </g>
        <g transform="matrix(1,0,0,1,-2.27374e-13,753.178)">
            <rect x="274.482" y="706.224" width="295.006" height="295.006" style="fill:white;stroke:black;stroke-width:6.2px;"/>
        </g>
        <g transform="matrix(1,0,0,1,355.07,753.178)">
            <rect x="274.482" y="706.224" width="295.006" height="295.006" style="fill:white;stroke:black;stroke-width:6.2px;"/>
        </g>
        <g transform="matrix(1,0,0,1,710.14,753.178)">
            <rect x="274.482" y="706.224" width="295.006" height="295.006" style="fill:white;stroke:black;stroke-width:6.2px;"/>
        </g>
        <g transform="matrix(1,0,0,1,1065.21,753.178)">
            <rect x="274.482" y="706.224" width="295.006" height="295.006" style="fill:white;stroke:black;stroke-width:6.2px;"/>
        </g>
        <g transform="matrix(1,0,0,1,1420.28,753.178)">
            <rect x="274.482" y="706.224" width="295.006" height="295.006" style="fill:white;stroke:black;stroke-width:6.2px;"/>
        </g>
        <g transform="matrix(1,0,0,1,-2.27374e-13,1128.08)">
            <rect x="274.482" y="706.224" width="295.006" height="295.006" style="fill:white;stroke:black;stroke-width:6.2px;"/>
        </g>
        <g transform="matrix(1,0,0,1,355.07,1128.08)">
            <rect x="274.482" y="706.224" width="295.006" height="295.006" style="fill:white;stroke:black;stroke-width:6.2px;"/>
        </g>
        <g transform="matrix(1,0,0,1,710.14,1128.08)">
            <rect x="274.482" y="706.224" width="295.006" height="295.006" style="fill:white;stroke:black;stroke-width:6.2px;"/>
        </g>
        <g transform="matrix(1,0,0,1,1065.21,1128.08)">
            <rect x="274.482" y="706.224" width="295.006" height="295.006" style="fill:white;stroke:black;stroke-width:6.2px;"/>
        </g>
        <g transform="matrix(1,0,0,1,-2.27374e-13,1502.97)">
            <rect x="274.482" y="706.224" width="295.006" height="295.006" style="fill:white;stroke:black;stroke-width:6.2px;"/>
        </g>
        <g transform="matrix(1,0,0,1,355.07,1502.97)">
            <rect x="274.482" y="706.224" width="295.006" height="295.006" style="fill:white;stroke:rgb(0,0,255);stroke-width:6.2px;"/>
        </g>
        <g transform="matrix(1,0,0,1,1065.21,1502.97)">
            <rect x="274.482" y="706.224" width="295.006" height="295.006" style="fill:white;stroke:black;stroke-width:6.2px;"/>
        </g>
        <g transform="matrix(1,0,0,1,-2.27374e-13,1877.87)">
            <rect x="274.482" y="706.224" width="295.006" height="295.006" style="fill:white;stroke:black;stroke-width:6.2px;"/>
        </g>
        <g transform="matrix(1,0,0,1,1065.21,1877.87)">
            <rect x="274.482" y="706.224" width="295.006" height="295.006" style="fill:white;stroke:black;stroke-width:6.2px;"/>
        </g>
    </g>
    <g transform="matrix(1.40407,0,0,1.28003,-461.68,-510.418)">
        <rect x="1812.03" y="1606.9" width="289.009" height="329.016" style="fill:white;"/>
    </g>
    <g transform="matrix(1.68211,0,0,1.28003,-1580.36,49.9607)">
        <rect x="1812.03" y="1606.9" width="289.009" height="329.016" style="fill:white;"/>
    </g>
    <g transform="matrix(1.68211,0,0,1.28003,-1787.47,28.1935)">
        <rect x="1812.03" y="1606.9" width="289.009" height="329.016" style="fill:white;"/>
    </g>
    <g transform="matrix(1.68211,0,0,1.28003,-2535.86,390.614)">
        <rect x="1812.03" y="1606.9" width="289.009" height="329.016" style="fill:white;"/>
    </g>
    <g transform="matrix(1.68211,0,0,1.28003,-2711.48,811.764)">
        <rect x="1812.03" y="1606.9" width="289.009" height="329.016" style="fill:white;"/>
    </g>
    <g transform="matrix(1.62515,-0.395671,0.362273,1.23669,-2317.77,1278.49)">
        <rect x="1812.03" y="1606.9" width="289.009" height="329.016" style="fill:white;"/>
    </g>
    <g transform="matrix(1.53163,0.337144,-0.335536,1.2669,-1522.53,-1641.78)">
        <rect x="1812.03" y="1606.9" width="289.009" height="329.016" style="fill:white;"/>
    </g>
    <g transform="matrix(1.68211,0,0,1.28003,-1301.32,848.727)">
        <rect x="1812.03" y="1606.9" width="289.009" height="329.016" style="fill:white;"/>
    </g>
    <g transform="matrix(1.68211,0,0,1.28003,-1745.73,848.727)">
        <rect x="1812.03" y="1606.9" width="289.009" height="329.016" style="fill:white;"/>
    </g>
</svg>
